<?xml version="1.0" standalone="no"?>
<!DOCTYPE svg PUBLIC "-//W3C//DTD SVG 20010904//EN"
 "http://www.w3.org/TR/2001/REC-SVG-20010904/DTD/svg10.dtd">
<svg version="1.0" xmlns="http://www.w3.org/2000/svg"
 width="256.000000pt" height="256.000000pt" viewBox="0 0 256.000000 256.000000"
 preserveAspectRatio="xMidYMid meet">
<metadata>
Created by potrace 1.14, written by Peter Selinger 2001-2017
</metadata>
<g transform="translate(0.000000,256.000000) scale(0.100000,-0.100000)"
fill="#000000" stroke="none">
<path d="M1581 2525 c-189 -43 -340 -137 -448 -279 -83 -110 -153 -289 -153
-394 0 -22 -4 -43 -9 -46 -4 -3 -101 89 -215 204 l-207 210 -233 0 c-222 0
-233 -1 -255 -21 -12 -11 -26 -32 -32 -46 -13 -34 -12 -425 1 -460 6 -15 82
-100 168 -188 86 -88 197 -201 246 -252 l89 -92 -244 -251 c-134 -138 -249
-263 -256 -278 -8 -18 -12 -96 -13 -237 0 -193 2 -213 20 -243 11 -18 32 -37
46 -42 14 -6 120 -10 235 -10 163 0 216 3 237 14 15 8 72 60 127 115 l100 101
130 1 c73 0 145 5 165 12 42 15 80 68 80 113 0 19 5 34 11 34 5 0 94 -83 197
-184 103 -101 197 -188 209 -195 14 -7 95 -11 235 -11 306 0 298 -8 298 300 0
102 -4 200 -9 218 -6 21 -62 87 -161 190 -206 216 -196 196 -102 217 163 36
279 95 389 199 108 100 185 232 220 374 25 102 22 276 -6 377 -72 259 -283
471 -536 540 -86 23 -245 28 -324 10z m263 -100 c367 -78 595 -455 496 -822
-56 -209 -225 -385 -435 -455 -101 -33 -270 -33 -373 1 -40 13 -75 21 -78 18
-3 -3 118 -131 270 -285 l276 -280 0 -201 0 -201 -188 0 -188 0 -274 275
c-151 151 -280 275 -287 275 -10 0 -13 -35 -13 -155 l0 -155 -153 0 -152 0
-120 -120 -120 -120 -192 0 -193 0 0 198 0 197 276 283 276 282 -140 148 c-77
81 -202 208 -276 282 l-136 135 0 197 0 198 194 0 193 0 278 -281 c276 -280
277 -281 297 -262 17 17 18 25 9 59 -47 180 -1 388 122 550 147 194 397 289
631 239z"/>
<path d="M1816 2070 c-136 -41 -203 -217 -131 -349 101 -185 358 -144 406 66
40 172 -114 331 -275 283z m142 -57 c69 -51 92 -142 55 -220 -33 -71 -127
-107 -201 -78 -180 73 -127 334 66 322 33 -2 63 -11 80 -24z"/>
<path d="M270 1877 l0 -92 96 -95 c52 -52 190 -193 307 -313 l211 -218 -312
-312 -312 -312 0 -93 0 -92 98 0 97 0 107 114 107 114 115 7 115 7 3 151 3
152 118 3 119 3 266 -272 c186 -189 272 -270 285 -268 13 3 -159 208 -668 796
-377 436 -685 797 -685 803 0 5 -16 10 -35 10 l-35 0 0 -93z"/>
</g>
</svg>
